# xmcd CD database file
#
# Track frame offsets:
#	150
#	15620
#	39887
#	63297
#	93067
#	116440
#	140030
#	164955
#	187465
#	209952
#	231867
#
# Disc length: 3454 seconds
#
# Revision: 2
# Processed by: cddbd v1.5.1PL0 Copyright (c) Steve Scherf et al.
# Submitted via: CDex 1.51
#
DISCID=a30d7c0b
DTITLE=CHICKENSHACK - CHICKENSHACK III
DYEAR=1987
DGENRE=Jazz
TTITLE0=GROOVE LINE
TTITLE1=THE FUTURE FUNK
TTITLE2=HOLD ON
TTITLE3=LITTLE LIGHT
TTITLE4=RICKY
TTITLE5=BIG MAMA JANET
TTITLE6=I'M A GOOD GIRL
TTITLE7=PERFUME
TTITLE8=GIVIN' MY LOVE TO YOU
TTITLE9=WITH THIS LOVE
TTITLE10=SHIRLEY (I SHALL BE BACK)
EXTD=YEAR: 1987
EXTT0=
EXTT1=
EXTT2=
EXTT3=
EXTT4=
EXTT5=
EXTT6=
EXTT7=
EXTT8=
EXTT9=
EXTT10=
PLAYORDER=
